<svg id="ekYsGJy1Afd1" xmlns="http://www.w3.org/2000/svg" xmlns:xlink="http://www.w3.org/1999/xlink" viewBox="0 0 700 400" shape-rendering="geometricPrecision" text-rendering="geometricPrecision" width="700" height="400"><style><![CDATA[#ekYsGJy1Afd12_tr {animation: ekYsGJy1Afd12_tr__tr 2000ms linear infinite normal forwards}@keyframes ekYsGJy1Afd12_tr__tr { 0% {transform: translate(150.560222px,150px) rotate(20deg);animation-timing-function: cubic-bezier(0.58,0.185,0.395,0.81)} 100% {transform: translate(150.560222px,150px) rotate(380deg)}} #ekYsGJy1Afd13_tr {animation: ekYsGJy1Afd13_tr__tr 2000ms linear infinite normal forwards}@keyframes ekYsGJy1Afd13_tr__tr { 0% {transform: translate(150.560226px,86.994957px) rotate(-20deg);animation-timing-function: cubic-bezier(0.58,0.185,0.395,0.81)} 100% {transform: translate(150.560226px,86.994957px) rotate(-380deg)}}]]></style><defs><linearGradient id="ekYsGJy1Afd2-fill" x1="144.82214" y1="0" x2="144.82214" y2="289.64428" spreadMethod="pad" gradientUnits="userSpaceOnUse"><stop id="ekYsGJy1Afd2-fill-0" offset="0%" stop-color="rgb(79,79,79)"/><stop id="ekYsGJy1Afd2-fill-1" offset="100%" stop-color="rgb(24,24,24)"/></linearGradient><linearGradient id="ekYsGJy1Afd4-fill" x1="0.5" y1="1" x2="0.5" y2="0" spreadMethod="pad" gradientUnits="objectBoundingBox"><stop id="ekYsGJy1Afd4-fill-0" offset="0%" stop-color="rgb(58,58,58)"/><stop id="ekYsGJy1Afd4-fill-1" offset="40%" stop-color="rgb(50,50,50)"/><stop id="ekYsGJy1Afd4-fill-2" offset="100%" stop-color="rgb(23,23,23)"/></linearGradient><radialGradient id="ekYsGJy1Afd5-fill" cx="0" cy="0" r="0.757148" spreadMethod="pad" gradientUnits="objectBoundingBox" gradientTransform="matrix(0.972835 0.231499 -0.223858 0.940726 0.794844 0.932555)"><stop id="ekYsGJy1Afd5-fill-0" offset="0%" stop-color="rgb(89,89,89)"/><stop id="ekYsGJy1Afd5-fill-1" offset="100%" stop-color="rgba(23,23,23,0)"/></radialGradient><radialGradient id="ekYsGJy1Afd6-fill" cx="0" cy="0" r="1.323234" spreadMethod="pad" gradientUnits="objectBoundingBox" gradientTransform="matrix(1 0 0 1 0.500855 0.528987)"><stop id="ekYsGJy1Afd6-fill-0" offset="29%" stop-color="rgba(0,0,0,0.45)"/><stop id="ekYsGJy1Afd6-fill-1" offset="36%" stop-color="rgba(44,44,44,0)"/></radialGradient><linearGradient id="ekYsGJy1Afd7-fill" x1="0.5" y1="0" x2="0.5" y2="1" spreadMethod="pad" gradientUnits="objectBoundingBox"><stop id="ekYsGJy1Afd7-fill-0" offset="0%" stop-color="rgb(59,59,59)"/><stop id="ekYsGJy1Afd7-fill-1" offset="100%" stop-color="rgb(44,44,44)"/></linearGradient><radialGradient id="ekYsGJy1Afd8-fill" cx="0" cy="0" r="0.953266" spreadMethod="pad" gradientUnits="objectBoundingBox" gradientTransform="matrix(1 0 0 1 0.181738 0)"><stop id="ekYsGJy1Afd8-fill-0" offset="1%" stop-color="rgb(101,101,101)"/><stop id="ekYsGJy1Afd8-fill-1" offset="100%" stop-color="rgba(44,44,44,0)"/></radialGradient><linearGradient id="ekYsGJy1Afd9-fill" x1="0.565211" y1="-0.628484" x2="0.579632" y2="1" spreadMethod="pad" gradientUnits="objectBoundingBox"><stop id="ekYsGJy1Afd9-fill-0" offset="1%" stop-color="rgba(101,101,101,0)"/><stop id="ekYsGJy1Afd9-fill-1" offset="100%" stop-color="rgb(44,44,44)"/></linearGradient><linearGradient id="ekYsGJy1Afd10-stroke" x1="0.565211" y1="-0.628484" x2="0.554443" y2="0.554773" spreadMethod="pad" gradientUnits="objectBoundingBox"><stop id="ekYsGJy1Afd10-stroke-0" offset="1%" stop-color="rgba(255,255,255,0)"/><stop id="ekYsGJy1Afd10-stroke-1" offset="100%" stop-color="rgb(39,38,38)"/></linearGradient><radialGradient id="ekYsGJy1Afd14-fill" cx="0" cy="0" r="0.451681" spreadMethod="pad" gradientUnits="objectBoundingBox" gradientTransform="matrix(0.807909 0.589308 -0.556273 0.76262 0.561205 0.536655)"><stop id="ekYsGJy1Afd14-fill-0" offset="33%" stop-color="rgb(0,0,0)"/><stop id="ekYsGJy1Afd14-fill-1" offset="100%" stop-color="rgba(0,0,0,0)"/></radialGradient><radialGradient id="ekYsGJy1Afd15-fill" cx="0" cy="0" r="0.873455" spreadMethod="pad" gradientUnits="objectBoundingBox" gradientTransform="matrix(1 0 0 1 0.244201 0.254292)"><stop id="ekYsGJy1Afd15-fill-0" offset="0%" stop-color="rgb(0,215,255)"/><stop id="ekYsGJy1Afd15-fill-1" offset="100%" stop-color="rgb(27,27,27)"/></radialGradient><radialGradient id="ekYsGJy1Afd16-fill" cx="0" cy="0" r="0.474224" spreadMethod="pad" gradientUnits="objectBoundingBox" gradientTransform="matrix(1 0 0 1 0.244201 0.254292)"><stop id="ekYsGJy1Afd16-fill-0" offset="0%" stop-color="rgba(192,212,253,0.75)"/><stop id="ekYsGJy1Afd16-fill-1" offset="100%" stop-color="rgba(49,53,103,0)"/></radialGradient><radialGradient id="ekYsGJy1Afd17-fill" cx="0" cy="0" r="0.850027" spreadMethod="pad" gradientUnits="objectBoundingBox" gradientTransform="matrix(1 -0.00002 0.00002 1 0.262236 0.279407)"><stop id="ekYsGJy1Afd17-fill-0" offset="0%" stop-color="rgba(192,212,253,0)"/><stop id="ekYsGJy1Afd17-fill-1" offset="100%" stop-color="rgba(0,0,0,0.81)"/></radialGradient><radialGradient id="ekYsGJy1Afd20-stroke" cx="0" cy="0" r="0.757148" spreadMethod="pad" gradientUnits="objectBoundingBox" gradientTransform="matrix(0.972835 0.231499 -0.223858 0.940726 0.794844 0.932555)"><stop id="ekYsGJy1Afd20-stroke-0" offset="0%" stop-color="rgb(131,131,131)"/><stop id="ekYsGJy1Afd20-stroke-1" offset="100%" stop-color="rgb(53,53,53)"/></radialGradient></defs><rect id="ekYsGJy1Afd2" width="289.64428" height="289.64428" rx="0" ry="0" transform="matrix(6.63694 0 0 3.761827 -611.175854 -432.811559)" fill="url(#ekYsGJy1Afd2-fill)" stroke="none" stroke-width="0"/><g id="ekYsGJy1Afd3" transform="matrix(0.512202 -0.100717 0.100717 0.512202 259.087795 137.003617)"><ellipse id="ekYsGJy1Afd4" rx="76.553672" ry="76.553672" transform="matrix(1 0 0 1 150 150)" fill="url(#ekYsGJy1Afd4-fill)" stroke="none" stroke-width="0"/><ellipse id="ekYsGJy1Afd5" rx="76.553672" ry="76.553672" transform="matrix(1 0 0 1 150 150)" opacity="0.57" fill="url(#ekYsGJy1Afd5-fill)" stroke="none" stroke-width="0"/><ellipse id="ekYsGJy1Afd6" rx="76.553672" ry="76.553672" transform="matrix(0.792689 0 0 0.792689 150 150)" fill="url(#ekYsGJy1Afd6-fill)" stroke="none" stroke-width="0"/><ellipse id="ekYsGJy1Afd7" rx="76.553672" ry="76.553672" transform="matrix(0.645351 0 0 0.645351 150 150)" fill="url(#ekYsGJy1Afd7-fill)" stroke="none" stroke-width="0"/><ellipse id="ekYsGJy1Afd8" rx="76.553672" ry="76.553672" transform="matrix(0.645351 0 0 0.645351 150 150)" fill="url(#ekYsGJy1Afd8-fill)" stroke="none" stroke-width="0"/><ellipse id="ekYsGJy1Afd9" rx="76.553672" ry="76.553672" transform="matrix(0.645351 0 0 0.645351 150 150)" fill="url(#ekYsGJy1Afd9-fill)" stroke="none" stroke-width="0"/><ellipse id="ekYsGJy1Afd10" rx="76.553672" ry="76.553672" transform="matrix(0.442246 -0.44492 0.44492 0.442246 150 150)" opacity="0.42" fill="none" stroke="url(#ekYsGJy1Afd10-stroke)" stroke-width="4"/><g id="ekYsGJy1Afd11" clip-path="url(#ekYsGJy1Afd18)"><g id="ekYsGJy1Afd12_tr" transform="translate(150.560222,150) rotate(20)"><g id="ekYsGJy1Afd12" transform="translate(-150.560222,-150)"><g id="ekYsGJy1Afd13_tr" transform="translate(150.560226,86.994957) rotate(-20)"><g id="ekYsGJy1Afd13" transform="translate(-150.560226,-86.994957)"><ellipse id="ekYsGJy1Afd14" style="mix-blend-mode:multiply" rx="11.454376" ry="11.454376" transform="matrix(1.842756 0.621314 -0.467176 1.385599 152.279496 88.912303)" opacity="0.77" fill="url(#ekYsGJy1Afd14-fill)" stroke="none" stroke-width="0"/><ellipse id="ekYsGJy1Afd15" rx="11.454376" ry="11.454376" transform="matrix(1.123917 0 0 1.123917 150.560222 86.994954)" fill="url(#ekYsGJy1Afd15-fill)" stroke="none" stroke-width="0"/><ellipse id="ekYsGJy1Afd16" rx="11.454376" ry="11.454376" transform="matrix(1.123917 0 0 1.123917 150.560222 86.994954)" fill="url(#ekYsGJy1Afd16-fill)" stroke="none" stroke-width="0"/><ellipse id="ekYsGJy1Afd17" rx="11.454376" ry="11.454376" transform="matrix(1.123917 0 0 1.123917 150.560222 86.994954)" opacity="0.28" fill="url(#ekYsGJy1Afd17-fill)" stroke="none" stroke-width="0"/></g></g></g></g><clipPath id="ekYsGJy1Afd18"><path id="ekYsGJy1Afd19" d="M503.02511,149.406C503.02511,107.12657,537.29936,72.85233,579.57878,72.85233C621.85821,72.85233,656.13245,107.12658,656.13245,149.406C656.13245,191.68543,621.8582,225.95967,579.57878,225.95967C537.29935,225.95967,503.02511,191.68542,503.02511,149.406ZM579.57878,198.80997C606.86384,198.80997,628.98276,176.69106,628.98276,149.40599C628.98276,122.12093,606.86385,100.00201,579.57878,100.00201C552.29372,100.00201,530.1748,122.12092,530.1748,149.40599C530.1748,176.69105,552.29371,198.80997,579.57878,198.80997Z" transform="matrix(1 0 0 1 -429.57878 0.594)" fill="rgb(210,219,237)" stroke="none" stroke-width="0"/></clipPath></g><ellipse id="ekYsGJy1Afd20" rx="76.553672" ry="76.553672" transform="matrix(1.004743 0 0 1.004743 150.000003 150)" fill="none" stroke="url(#ekYsGJy1Afd20-stroke)" stroke-width="1"/></g></svg>